# Blender v3.1.2 OBJ File: 'gmtk_01.blend'
# www.blender.org
mtllib gmtk_01.mtl
o Cube_Cube.001
v -0.121542 0.082891 0.121542
v -0.121542 0.095891 0.134542
v -0.134542 0.095891 0.121542
v -0.121542 0.084628 0.128033
v -0.128034 0.084628 0.121542
v -0.127759 0.086315 0.127759
v -0.128034 0.095891 0.132805
v -0.121542 0.089400 0.132805
v -0.127759 0.089675 0.131118
v -0.132805 0.089400 0.121542
v -0.132805 0.095891 0.128033
v -0.131118 0.089675 0.127759
v -0.121542 0.338975 0.134542
v -0.121542 0.351975 0.121542
v -0.134542 0.338975 0.121542
v -0.121542 0.345466 0.132805
v -0.128034 0.338975 0.132805
v -0.127759 0.345191 0.131118
v -0.128034 0.350238 0.121542
v -0.121542 0.350238 0.128033
v -0.127759 0.348551 0.127759
v -0.132805 0.338975 0.128033
v -0.132805 0.345466 0.121542
v -0.131118 0.345191 0.127759
v -0.121542 0.082891 -0.121541
v -0.134542 0.095891 -0.121541
v -0.121542 0.095891 -0.134541
v -0.128034 0.084628 -0.121541
v -0.121542 0.084628 -0.128033
v -0.127759 0.086315 -0.127758
v -0.132805 0.095891 -0.128033
v -0.132805 0.089400 -0.121541
v -0.131118 0.089675 -0.127758
v -0.121542 0.089400 -0.132805
v -0.128034 0.095891 -0.132805
v -0.127759 0.089675 -0.131118
v -0.121542 0.351975 -0.121541
v -0.121542 0.338975 -0.134541
v -0.134542 0.338975 -0.121541
v -0.121542 0.350238 -0.128033
v -0.128034 0.350238 -0.121541
v -0.127759 0.348551 -0.127758
v -0.128034 0.338975 -0.132805
v -0.121542 0.345466 -0.132805
v -0.127759 0.345191 -0.131118
v -0.132805 0.345466 -0.121541
v -0.132805 0.338975 -0.128033
v -0.131118 0.345191 -0.127758
v 0.121541 0.082891 0.121542
v 0.134541 0.095891 0.121542
v 0.121541 0.095891 0.134542
v 0.128033 0.084628 0.121542
v 0.121541 0.084628 0.128033
v 0.127758 0.086315 0.127759
v 0.132804 0.095891 0.128033
v 0.132804 0.089400 0.121542
v 0.131117 0.089675 0.127759
v 0.121541 0.089400 0.132805
v 0.128033 0.095891 0.132805
v 0.127758 0.089675 0.131118
v 0.121541 0.351975 0.121542
v 0.121541 0.338975 0.134542
v 0.134541 0.338975 0.121542
v 0.121541 0.350238 0.128033
v 0.128033 0.350238 0.121542
v 0.127758 0.348551 0.127759
v 0.128033 0.338975 0.132805
v 0.121541 0.345466 0.132805
v 0.127758 0.345191 0.131118
v 0.132804 0.345466 0.121542
v 0.132804 0.338975 0.128033
v 0.131117 0.345191 0.127759
v 0.121541 0.082891 -0.121541
v 0.121541 0.095891 -0.134541
v 0.134541 0.095891 -0.121541
v 0.121541 0.084628 -0.128033
v 0.128033 0.084628 -0.121541
v 0.127758 0.086315 -0.127758
v 0.128033 0.095891 -0.132805
v 0.121541 0.089400 -0.132805
v 0.127758 0.089675 -0.131118
v 0.132804 0.089400 -0.121541
v 0.132804 0.095891 -0.128033
v 0.131117 0.089675 -0.127758
v 0.121541 0.351975 -0.121541
v 0.134541 0.338975 -0.121541
v 0.121541 0.338975 -0.134541
v 0.128033 0.350238 -0.121541
v 0.121541 0.350238 -0.128033
v 0.127758 0.348551 -0.127758
v 0.132804 0.338975 -0.128033
v 0.132804 0.345466 -0.121541
v 0.131117 0.345191 -0.127758
v 0.121541 0.345466 -0.132805
v 0.128033 0.338975 -0.132805
v 0.127758 0.345191 -0.131118
vt 0.387078 0.762078
vt 0.612922 0.762078
vt 0.612922 0.987922
vt 0.387078 0.987922
vt 0.387078 0.512078
vt 0.612922 0.512078
vt 0.612922 0.737922
vt 0.387078 0.737922
vt 0.637078 0.512078
vt 0.862922 0.512078
vt 0.862922 0.737922
vt 0.637078 0.737922
vt 0.387078 0.012078
vt 0.612922 0.012078
vt 0.612922 0.237922
vt 0.387078 0.237922
vt 0.387078 0.262078
vt 0.612922 0.262078
vt 0.612922 0.487922
vt 0.387078 0.487922
vt 0.137078 0.737922
vt 0.137078 0.743953
vt 0.131302 0.743698
vt 0.131047 0.737922
vt 0.137078 0.750000
vt 0.131302 0.750000
vt 0.387078 0.993953
vt 0.381302 0.993698
vt 0.381047 0.987922
vt 0.387078 0.001614
vt 0.387078 0.000000
vt 0.381302 0.000000
vt 0.381302 0.003181
vt 0.381047 0.012078
vt 0.381302 0.006302
vt 0.387078 0.006047
vt 0.126614 0.737922
vt 0.125000 0.737922
vt 0.125000 0.743698
vt 0.128181 0.743698
vt 0.125000 0.743698
vt 0.618953 0.987922
vt 0.618698 0.993698
vt 0.612922 0.993953
vt 0.625000 0.987922
vt 0.625000 0.993698
vt 0.868953 0.737922
vt 0.868698 0.743698
vt 0.862922 0.743953
vt 0.623386 0.012078
vt 0.625000 0.012078
vt 0.625000 0.006302
vt 0.621819 0.006302
vt 0.612922 0.006047
vt 0.618698 0.006302
vt 0.618953 0.012078
vt 0.612922 0.000000
vt 0.618698 0.000000
vt 0.618698 1.000000
vt 0.137078 0.512078
vt 0.131047 0.512078
vt 0.131302 0.506302
vt 0.137078 0.506047
vt 0.125000 0.512078
vt 0.125000 0.506302
vt 0.387078 0.243953
vt 0.381302 0.243698
vt 0.381047 0.237922
vt 0.387078 0.250000
vt 0.381302 0.250000
vt 0.381047 0.262078
vt 0.381302 0.256302
vt 0.387078 0.256047
vt 0.137078 0.501614
vt 0.137078 0.500000
vt 0.131302 0.500000
vt 0.131302 0.503181
vt 0.131302 0.500000
vt 0.862922 0.506047
vt 0.868698 0.506302
vt 0.868953 0.512078
vt 0.623386 0.262078
vt 0.625000 0.262078
vt 0.625000 0.256302
vt 0.621819 0.256302
vt 0.612922 0.256047
vt 0.618698 0.256302
vt 0.618953 0.262078
vt 0.612922 0.250000
vt 0.618698 0.250000
vt 0.618953 0.237922
vt 0.618698 0.243698
vt 0.612922 0.243953
vt 0.625000 0.237922
vt 0.625000 0.243698
vt 0.618698 0.250000
vt 0.362922 0.737922
vt 0.368953 0.737922
vt 0.368698 0.743698
vt 0.362922 0.743953
vt 0.375000 0.737922
vt 0.375000 0.743698
vt 0.387078 0.743953
vt 0.381302 0.743698
vt 0.381047 0.737922
vt 0.387078 0.750000
vt 0.381302 0.750000
vt 0.381047 0.762078
vt 0.381302 0.756302
vt 0.387078 0.756047
vt 0.362922 0.748386
vt 0.362922 0.750000
vt 0.368698 0.750000
vt 0.368698 0.746819
vt 0.368698 0.750000
vt 0.637078 0.743953
vt 0.631302 0.743698
vt 0.631047 0.737922
vt 0.623386 0.762078
vt 0.625000 0.762078
vt 0.625000 0.756302
vt 0.621819 0.756302
vt 0.612922 0.756047
vt 0.618698 0.756302
vt 0.618953 0.762078
vt 0.612922 0.750000
vt 0.618698 0.750000
vt 0.618953 0.737922
vt 0.618698 0.743698
vt 0.612922 0.743953
vt 0.625000 0.737922
vt 0.625000 0.743698
vt 0.618698 0.750000
vt 0.362922 0.512078
vt 0.362922 0.506047
vt 0.368698 0.506302
vt 0.368953 0.512078
vt 0.362922 0.500000
vt 0.368698 0.500000
vt 0.387078 0.493953
vt 0.381302 0.493698
vt 0.381047 0.487922
vt 0.387078 0.500000
vt 0.381302 0.500000
vt 0.381047 0.512078
vt 0.381302 0.506302
vt 0.387078 0.506047
vt 0.375000 0.512078
vt 0.375000 0.506302
vt 0.375000 0.506302
vt 0.631047 0.512078
vt 0.631302 0.506302
vt 0.637078 0.506047
vt 0.625000 0.512078
vt 0.625000 0.506302
vt 0.612922 0.506047
vt 0.618698 0.506302
vt 0.618953 0.512078
vt 0.612922 0.500000
vt 0.618698 0.500000
vt 0.618953 0.487922
vt 0.618698 0.493698
vt 0.612922 0.493953
vt 0.625000 0.487922
vt 0.625000 0.493698
vt 0.621819 0.506302
vt 0.618698 0.500000
vt 0.125000 0.737922
vt 0.387078 0.000000
vt 0.625000 0.012078
vt 0.137078 0.500000
vt 0.625000 0.262078
vt 0.362922 0.750000
vt 0.625000 0.762078
vn 0.0000 0.0000 1.0000
vn 1.0000 0.0000 0.0000
vn 0.0000 1.0000 0.0000
vn -1.0000 0.0000 0.0000
vn 0.0000 0.0000 -1.0000
vn -0.2566 -0.9318 0.2566
vn -0.2178 -0.6901 0.6901
vn -0.2566 -0.2566 0.9318
vn -0.6901 -0.2178 0.6901
vn -0.9318 -0.2566 0.2566
vn -0.6901 -0.6901 0.2178
vn -0.5773 -0.5774 0.5774
vn -0.2566 0.2566 0.9318
vn -0.2178 0.6901 0.6901
vn -0.2566 0.9318 0.2566
vn -0.6901 0.6901 0.2178
vn -0.9318 0.2566 0.2566
vn -0.6901 0.2178 0.6901
vn -0.5773 0.5774 0.5773
vn -0.2566 -0.9318 -0.2566
vn -0.6901 -0.6901 -0.2178
vn -0.9318 -0.2566 -0.2566
vn -0.6901 -0.2178 -0.6901
vn -0.2566 -0.2566 -0.9318
vn -0.2178 -0.6901 -0.6901
vn -0.5773 -0.5774 -0.5773
vn -0.2566 0.9318 -0.2566
vn -0.2178 0.6901 -0.6901
vn -0.2566 0.2566 -0.9318
vn -0.6901 0.2178 -0.6901
vn -0.9318 0.2566 -0.2566
vn -0.6901 0.6901 -0.2178
vn -0.5774 0.5774 -0.5773
vn 0.2566 -0.9318 0.2566
vn 0.6901 -0.6901 0.2178
vn 0.9318 -0.2566 0.2566
vn 0.6901 -0.2178 0.6901
vn 0.2566 -0.2566 0.9318
vn 0.2178 -0.6901 0.6901
vn 0.5774 -0.5773 0.5773
vn 0.2566 0.9318 0.2566
vn 0.2178 0.6901 0.6901
vn 0.2566 0.2566 0.9318
vn 0.6901 0.2178 0.6901
vn 0.9318 0.2566 0.2566
vn 0.6901 0.6901 0.2178
vn 0.5773 0.5774 0.5773
vn 0.2566 -0.9318 -0.2566
vn 0.2178 -0.6901 -0.6901
vn 0.2566 -0.2566 -0.9318
vn 0.6901 -0.2178 -0.6901
vn 0.9318 -0.2566 -0.2566
vn 0.6901 -0.6901 -0.2178
vn 0.5773 -0.5774 -0.5773
vn 0.2566 0.9318 -0.2566
vn 0.6901 0.6901 -0.2178
vn 0.9318 0.2566 -0.2566
vn 0.6901 0.2178 -0.6901
vn 0.2566 0.2566 -0.9318
vn 0.2178 0.6901 -0.6901
vn 0.5774 0.5774 -0.5773
vn -0.2585 -0.9660 0.0000
vn -0.7071 -0.7071 0.0000
vn -0.9660 -0.2585 0.0000
vn -0.2585 0.0000 0.9660
vn -0.7071 0.0000 0.7071
vn -0.9660 0.0000 0.2585
vn -0.2585 0.9660 0.0000
vn -0.7071 0.7071 0.0000
vn -0.9660 0.2585 0.0000
vn -0.2585 0.0000 -0.9660
vn -0.7071 0.0000 -0.7071
vn -0.9660 0.0000 -0.2585
vn 0.0000 -0.9660 -0.2585
vn 0.0000 -0.7071 -0.7071
vn 0.0000 -0.2585 -0.9660
vn 0.0000 0.9660 -0.2585
vn 0.0000 0.7071 -0.7071
vn 0.0000 0.2585 -0.9660
vn 0.9660 -0.0000 -0.2585
vn 0.7071 -0.0000 -0.7071
vn 0.2585 -0.0000 -0.9660
vn 0.2585 -0.9660 0.0000
vn 0.7071 -0.7071 -0.0000
vn 0.9660 -0.2585 -0.0000
vn 0.2585 0.9660 -0.0000
vn 0.7071 0.7071 0.0000
vn 0.9660 0.2585 0.0000
vn 0.2585 -0.0000 0.9660
vn 0.7071 0.0000 0.7071
vn 0.9660 0.0000 0.2585
vn 0.0000 -0.9660 0.2585
vn 0.0000 -0.7071 0.7071
vn 0.0000 -0.2585 0.9660
vn 0.0000 0.9660 0.2585
vn 0.0000 0.7071 0.7071
vn 0.0000 0.2585 0.9660
vn 0.0000 -1.0000 0.0000
usemtl None
s off
f 51/1/1 62/2/1 13/3/1 2/4/1
f 75/5/2 86/6/2 63/7/2 50/8/2
f 85/9/3 37/10/3 14/11/3 61/12/3
f 3/13/4 15/14/4 39/15/4 26/16/4
f 27/17/5 38/18/5 87/19/5 74/20/5
f 1/21/6 4/22/6 6/23/6 5/24/6
f 4/22/7 8/25/7 9/26/7 6/23/7
f 2/4/8 7/27/8 9/28/8 8/29/8
f 7/30/9 11/31/9 12/32/9 9/33/9
f 3/13/10 10/34/10 12/35/10 11/36/10
f 10/37/11 5/38/11 6/39/11 12/40/11
f 6/23/12 9/26/12 12/41/12
f 13/3/13 16/42/13 18/43/13 17/44/13
f 16/42/14 20/45/14 21/46/14 18/43/14
f 14/11/15 19/47/15 21/48/15 20/49/15
f 19/50/16 23/51/16 24/52/16 21/53/16
f 15/14/17 22/54/17 24/55/17 23/56/17
f 22/54/18 17/57/18 18/58/18 24/55/18
f 18/43/19 21/46/19 24/59/19
f 25/60/20 28/61/20 30/62/20 29/63/20
f 28/61/21 32/64/21 33/65/21 30/62/21
f 26/16/22 31/66/22 33/67/22 32/68/22
f 31/66/23 35/69/23 36/70/23 33/67/23
f 27/17/24 34/71/24 36/72/24 35/73/24
f 34/74/25 29/75/25 30/76/25 36/77/25
f 30/62/26 33/65/26 36/78/26
f 37/10/27 40/79/27 42/80/27 41/81/27
f 40/82/28 44/83/28 45/84/28 42/85/28
f 38/18/29 43/86/29 45/87/29 44/88/29
f 43/86/30 47/89/30 48/90/30 45/87/30
f 39/15/31 46/91/31 48/92/31 47/93/31
f 46/91/32 41/94/32 42/95/32 48/92/32
f 42/85/33 45/96/33 48/90/33
f 49/97/34 52/98/34 54/99/34 53/100/34
f 52/98/35 56/101/35 57/102/35 54/99/35
f 50/8/36 55/103/36 57/104/36 56/105/36
f 55/103/37 59/106/37 60/107/37 57/104/37
f 51/1/38 58/108/38 60/109/38 59/110/38
f 58/111/39 53/112/39 54/113/39 60/114/39
f 54/99/40 57/102/40 60/115/40
f 61/12/41 64/116/41 66/117/41 65/118/41
f 64/119/42 68/120/42 69/121/42 66/122/42
f 62/2/43 67/123/43 69/124/43 68/125/43
f 67/123/44 71/126/44 72/127/44 69/124/44
f 63/7/45 70/128/45 72/129/45 71/130/45
f 70/128/46 65/131/46 66/132/46 72/129/46
f 66/122/47 69/133/47 72/127/47
f 73/134/48 76/135/48 78/136/48 77/137/48
f 76/135/49 80/138/49 81/139/49 78/136/49
f 74/20/50 79/140/50 81/141/50 80/142/50
f 79/140/51 83/143/51 84/144/51 81/141/51
f 75/5/52 82/145/52 84/146/52 83/147/52
f 82/145/53 77/148/53 78/149/53 84/146/53
f 78/136/54 81/139/54 84/150/54
f 85/9/55 88/151/55 90/152/55 89/153/55
f 88/151/56 92/154/56 93/155/56 90/152/56
f 86/6/57 91/156/57 93/157/57 92/158/57
f 91/156/58 95/159/58 96/160/58 93/157/58
f 87/19/59 94/161/59 96/162/59 95/163/59
f 94/161/60 89/164/60 90/165/60 96/162/60
f 90/166/61 93/167/61 96/160/61
f 25/60/62 1/21/62 5/24/62 28/61/62
f 28/61/63 5/24/63 10/168/63 32/64/63
f 32/68/64 10/34/64 3/13/64 26/16/64
f 2/4/65 13/3/65 17/44/65 7/27/65
f 7/169/66 17/57/66 22/54/66 11/36/66
f 11/36/67 22/54/67 15/14/67 3/13/67
f 14/11/68 37/10/68 41/81/68 19/47/68
f 19/170/69 41/94/69 46/91/69 23/56/69
f 23/56/70 46/91/70 39/15/70 15/14/70
f 38/18/71 27/17/71 35/73/71 43/86/71
f 43/86/72 35/73/72 31/66/72 47/93/72
f 47/93/73 31/66/73 26/16/73 39/15/73
f 73/134/74 25/60/74 29/63/74 76/135/74
f 76/135/75 29/63/75 34/171/75 80/138/75
f 80/142/76 34/71/76 27/17/76 74/20/76
f 37/10/77 85/9/77 89/153/77 40/79/77
f 40/172/78 89/164/78 94/161/78 44/88/78
f 44/88/79 94/161/79 87/19/79 38/18/79
f 86/6/80 75/5/80 83/147/80 91/156/80
f 91/156/81 83/147/81 79/140/81 95/163/81
f 95/163/82 79/140/82 74/20/82 87/19/82
f 49/97/83 73/134/83 77/137/83 52/98/83
f 52/98/84 77/137/84 82/145/84 56/105/84
f 56/105/85 82/145/85 75/5/85 50/8/85
f 85/9/86 61/12/86 65/118/86 88/151/86
f 88/151/87 65/118/87 70/128/87 92/158/87
f 92/158/88 70/128/88 63/7/88 86/6/88
f 62/2/89 51/1/89 59/110/89 67/123/89
f 67/123/90 59/110/90 55/103/90 71/130/90
f 71/130/91 55/103/91 50/8/91 63/7/91
f 1/21/92 49/97/92 53/100/92 4/22/92
f 4/22/93 53/100/93 58/173/93 8/25/93
f 8/29/94 58/108/94 51/1/94 2/4/94
f 61/12/95 14/11/95 20/49/95 64/116/95
f 64/174/96 20/45/96 16/42/96 68/125/96
f 68/125/97 16/42/97 13/3/97 62/2/97
f 25/60/98 73/134/98 49/97/98 1/21/98
