# Blender v3.1.2 OBJ File: ''
# www.blender.org
mtllib RadialUnvrap.mtl
o Plane.003
v -0.000000 0.000000 0.000000
v -2.000000 0.000000 2.000000
v -2.000000 0.000000 0.000000
v -2.000000 0.000000 -2.000000
v 0.000000 0.000000 -2.000000
v 2.000000 0.000000 -2.000000
v 2.000000 0.000000 -0.000000
v 2.000000 0.000000 2.000000
v 0.000000 0.000000 2.000000
vt 0.012919 0.002461
vt 0.995694 0.002461
vt 0.995694 0.985235
vt 0.012919 0.985235
vt 0.012919 0.002461
vt 0.995694 0.985235
vt 0.012919 0.985235
vt 0.012919 0.002461
vt 0.995694 0.985235
vt 0.012919 0.985235
vt 0.012919 0.002461
vt 0.995694 0.985235
vt 0.012919 0.985235
vn 0.0000 1.0000 0.0000
usemtl Material
s off
f 9/1/1 1/2/1 3/3/1 2/4/1
f 3/5/1 1/2/1 5/6/1 4/7/1
f 5/8/1 1/2/1 7/9/1 6/10/1
f 7/11/1 1/2/1 9/12/1 8/13/1
